<svg xmlns="http://www.w3.org/2000/svg" version="1.1" xmlns:xlink="http://www.w3.org/1999/xlink" xmlns:svgjs="http://svgjs.dev/svgjs" width="1500" height="1500" viewBox="0 0 1500 1500"><rect width="1500" height="1500" fill="#1c3244"></rect><g transform="matrix(0.6666666666666666,0,0,0.6666666666666666,249.39393939393938,435.99032258064517)"><svg viewBox="0 0 396 248" data-background-color="#1c3244" preserveAspectRatio="xMidYMid meet" height="939" width="1500" xmlns="http://www.w3.org/2000/svg" xmlns:xlink="http://www.w3.org/1999/xlink"><g id="tight-bounds" transform="matrix(1,0,0,1,0.2400000000000091,0.4000000000000057)"><svg viewBox="0 0 395.52 247.2" height="247.2" width="395.52"><g><svg></svg></g><g><svg viewBox="0 0 395.52 247.2" height="247.2" width="395.52"><g transform="matrix(1,0,0,1,75.54432,110.82019318586612)"><svg viewBox="0 0 244.43135999999998 25.55961362826774" height="25.55961362826774" width="244.43135999999998"><g><svg viewBox="0 0 244.43135999999998 25.55961362826774" height="25.55961362826774" width="244.43135999999998"><g><svg viewBox="0 0 244.43135999999998 25.55961362826774" height="25.55961362826774" width="244.43135999999998"><g><svg viewBox="0 0 244.43135999999998 25.55961362826774" height="25.55961362826774" width="244.43135999999998"><g id="textblocktransform"><svg viewBox="0 0 244.43135999999998 25.55961362826774" height="25.55961362826774" width="244.43135999999998" id="textblock"><g><svg viewBox="0 0 244.43135999999998 25.55961362826774" height="25.55961362826774" width="244.43135999999998"><g transform="matrix(1,0,0,1,0,0)"><svg width="244.43135999999998" viewBox="6.5 -35.7 348.07 36.400000000000006" height="25.55961362826774" data-palette-color="#e6ded7"><path d="M6.5 0L6.5-35 13.2-35Q18.5-35 21.43-32.77 24.35-30.55 24.35-26.55L24.35-26.55Q24.35-23.45 22.53-21.4 20.7-19.35 17.25-18.65L17.25-18.65 17.25-18.35Q20.55-17.7 22.65-15.25 24.75-12.8 25.8-9.2L25.8-9.2Q26.75-5.9 27.68-4.08 28.6-2.25 29.73-1.45 30.85-0.65 32.4-0.3L32.4-0.3 32.4 0 30.35 0Q28.15 0 26.73-0.8 25.3-1.6 24.3-3.5 23.3-5.4 22.4-8.75L22.4-8.75Q20.95-13.9 18.55-16.05 16.15-18.2 12.7-18.2L12.7-18.2 12.4-18.2 12.4-19.1 12.7-19.1Q20.75-19.1 20.75-26.5L20.75-26.5Q20.75-33.8 13.2-33.8L13.2-33.8 9.9-33.8 9.9 0 6.5 0ZM38.55 0L34.9 0 48.35-35 51.45-35 64.9 0 61.25 0 55.05-16.4 43.7-16.4 38.55 0ZM49-32.4L48.7-32.4 44.05-17.6 54.6-17.6 49-32.4ZM76.4 0L73 0 73-35 79.25-35Q85.3-35 88.65-32.43 92-29.85 92-25.25L92-25.25Q92-20.65 88.65-18.07 85.3-15.5 79.25-15.5L79.25-15.5 76.4-15.5 76.4 0ZM79.25-33.8L79.25-33.8 76.4-33.8 76.4-16.7 79.25-16.7Q88.4-16.7 88.4-25.25L88.4-25.25Q88.4-33.8 79.25-33.8ZM104.89 0L101.49 0 101.49-35 107.74-35Q113.79-35 117.14-32.43 120.49-29.85 120.49-25.25L120.49-25.25Q120.49-20.65 117.14-18.07 113.79-15.5 107.74-15.5L107.74-15.5 104.89-15.5 104.89 0ZM107.74-33.8L107.74-33.8 104.89-33.8 104.89-16.7 107.74-16.7Q116.89-16.7 116.89-25.25L116.89-25.25Q116.89-33.8 107.74-33.8ZM126.04 0L122.39 0 135.84-35 138.94-35 152.39 0 148.74 0 142.54-16.4 131.19-16.4 126.04 0ZM136.49-32.4L136.19-32.4 131.54-17.6 142.09-17.6 136.49-32.4ZM184.99 0L173.99 0 173.99-35 184.99-35Q190.79-35 195.09-32.8 199.39-30.6 201.79-26.68 204.19-22.75 204.19-17.5L204.19-17.5Q204.19-12.25 201.79-8.33 199.39-4.4 195.09-2.2 190.79 0 184.99 0L184.99 0ZM184.99-33.8L184.99-33.8 177.39-33.8 177.39-1.2 184.99-1.2Q192.24-1.2 196.31-5.5 200.39-9.8 200.39-17.5L200.39-17.5Q200.39-25.2 196.31-29.5 192.24-33.8 184.99-33.8ZM230.08 0L214.68 0 214.68-35 229.93-35 229.93-32.55 221.18-33.7Q218.88-34 218.08-34L218.08-34 218.08-18.75Q218.73-18.75 221.18-18.9L221.18-18.9 229.38-19.4 229.38-17.1 221.18-17.6Q218.73-17.75 218.08-17.75L218.08-17.75 218.08-1Q218.98-1 221.23-1.3L221.23-1.3 230.08-2.45 230.08 0ZM237.53-1.1L237.53-1.1 237.83-4.1 238.13-4.1Q240.08-2.4 242.53-1.45 244.98-0.5 247.38-0.5L247.38-0.5Q250.78-0.5 252.88-2.38 254.98-4.25 254.98-7.4L254.98-7.4Q254.98-9.15 254.21-10.65 253.43-12.15 251.66-13.7 249.88-15.25 246.78-17.05L246.78-17.05Q244.63-18.3 242.68-19.68 240.73-21.05 239.48-22.88 238.23-24.7 238.23-27.25L238.23-27.25Q238.23-31.05 240.98-33.38 243.73-35.7 248.23-35.7L248.23-35.7Q250.23-35.7 252.53-35.27 254.83-34.85 256.08-34.2L256.08-34.2 255.83-31.4 255.53-31.4Q252.68-34.5 248.23-34.5L248.23-34.5Q245.03-34.5 243.08-32.88 241.13-31.25 241.13-28.5L241.13-28.5Q241.13-26.45 242.21-24.98 243.28-23.5 244.98-22.33 246.68-21.15 248.63-20.05L248.63-20.05Q250.88-18.75 253.01-17.3 255.13-15.85 256.5-13.83 257.88-11.8 257.88-8.75L257.88-8.75Q257.88-5.95 256.58-3.83 255.28-1.7 252.91-0.5 250.53 0.7 247.38 0.7L247.38 0.7Q245.38 0.7 242.68 0.2 239.98-0.3 237.53-1.1ZM271.13 0L267.73 0 267.73-35 271.13-35 271.13 0ZM310.82-16.6L301.57-16.6 301.57-17.8 314.23-17.8 314.23-4.2Q311.93-1.9 308.6-0.6 305.27 0.7 301.18 0.7L301.18 0.7Q296.98 0.7 293.43-0.68 289.88-2.05 287.23-4.53 284.57-7 283.1-10.3 281.63-13.6 281.63-17.5L281.63-17.5Q281.63-21.4 283.1-24.7 284.57-28 287.23-30.48 289.88-32.95 293.43-34.33 296.98-35.7 301.18-35.7L301.18-35.7Q302.98-35.7 305.1-35.45 307.23-35.2 309.18-34.77 311.13-34.35 312.48-33.75L312.48-33.75 312.23-30.95 311.93-30.95Q309.93-32.7 307.13-33.6 304.32-34.5 301.18-34.5L301.18-34.5Q296.48-34.5 292.93-32.38 289.38-30.25 287.4-26.43 285.43-22.6 285.43-17.5L285.43-17.5Q285.43-12.4 287.4-8.58 289.38-4.75 292.93-2.63 296.48-0.5 301.18-0.5L301.18-0.5Q304.07-0.5 306.55-1.3 309.02-2.1 310.82-3.6L310.82-3.6 310.82-16.6ZM328.37 0L324.97 0 326.22-35.7 326.82-35.7 351.97-5.3 352.27-5.3 351.17-35 354.57-35 353.32 0.7 352.72 0.7 327.57-29.7 327.27-29.7 328.37 0Z" opacity="1" transform="matrix(1,0,0,1,0,0)" fill="#e6ded7" class="wordmark-text-0" data-fill-palette-color="primary" id="text-0"></path></svg></g></svg></g></svg></g></svg></g><g></g></svg></g></svg></g></svg></g><g><path d="M77.001 104.786A122.216 122.216 0 0 1 318.519 104.786L316.214 104.786A119.911 119.911 0 0 0 79.306 104.786L77.001 104.786M77.001 142.414A122.216 122.216 0 0 0 318.519 142.414L316.214 142.414A119.911 119.911 0 0 1 79.306 142.414L77.001 142.414" fill="#8c7e75" stroke="transparent" data-fill-palette-color="tertiary"></path></g></svg></g><defs></defs></svg><rect width="395.52" height="247.2" fill="none" stroke="none" visibility="hidden"></rect></g></svg></g></svg>